<svg width="161" height="89" viewBox="0 0 161 89" fill="none" xmlns="http://www.w3.org/2000/svg">
<path d="M22.5002 5.86665C22.2033 5.86665 21.9167 5.82138 21.647 5.73743V9.80413H23.3533V5.73743C23.0836 5.82149 22.7971 5.86665 22.5002 5.86665Z" fill="#135693"/>
<path d="M22.5 5.98118C24.1517 5.98118 25.4906 4.64225 25.4906 2.99059C25.4906 1.33893 24.1517 0 22.5 0C20.8484 0 19.5094 1.33893 19.5094 2.99059C19.5094 4.64225 20.8484 5.98118 22.5 5.98118Z" fill="#6BC1DD"/>
<g opacity="0.15">
<path opacity="0.15" d="M22.0267 2.99059C22.0267 1.78878 22.7359 0.753051 23.7587 0.277673C23.3759 0.099876 22.9498 0 22.5 0C20.8483 0 19.5094 1.339 19.5094 2.99059C19.5094 4.64219 20.8483 5.98107 22.5 5.98107C22.9498 5.98107 23.3759 5.88119 23.7587 5.7034C22.7359 5.22813 22.0267 4.1924 22.0267 2.99059Z" fill="#440075"/>
</g>
<path d="M41.562 14.4727H39.7985V30.7415H41.562C42.5288 30.7415 43.3199 29.9506 43.3199 28.9838V16.2304C43.3199 15.2637 42.5288 14.4727 41.562 14.4727Z" fill="#9EA7AF"/>
<path d="M5.20129 14.4724H3.32139C2.35459 14.4724 1.56366 15.2635 1.56366 16.2301V28.9834C1.56366 29.9502 2.35459 30.7412 3.32139 30.7412H5.20117L5.20129 14.4724Z" fill="#9EA7AF"/>
<path d="M6.4 52.0263H3.98432C3.1596 52.0263 2.39347 51.7758 1.75781 51.3466V57.0707C1.75781 57.7152 2.28518 58.2425 2.92971 58.2425H6.4V52.0263Z" fill="#C5CCD3"/>
<path d="M41.0155 52.0259H38.5999V58.2422H42.0702C42.7148 58.2422 43.2421 57.7148 43.2421 57.0703V51.3463C42.6064 51.7753 41.8402 52.0259 41.0155 52.0259Z" fill="#C5CCD3"/>
<path opacity="0.15" d="M4.21877 57.0705V52.0261H3.98432C3.1596 52.0261 2.39347 51.7755 1.75781 51.3463V57.0704C1.75781 57.7149 2.28518 58.2423 2.92971 58.2423H5.39066C4.74613 58.2424 4.21877 57.7151 4.21877 57.0705Z" fill="#440075"/>
<path d="M6.40003 43.0671H3.98435C1.78389 43.0671 0 44.851 0 47.0515V48.2234C0 50.4238 1.784 52.2076 3.98435 52.2076H6.39991L6.40003 43.0671Z" fill="#E6E9ED"/>
<path d="M41.0155 43.0664H38.5999V52.207H41.0155C43.2161 52.207 44.9999 50.4231 44.9999 48.2228V47.0509C44.9999 44.8502 43.216 43.0664 41.0155 43.0664Z" fill="#E6E9ED"/>
<g opacity="0.15">
<path opacity="0.15" d="M2.81257 48.2228V47.0509C2.81257 44.8503 4.59646 43.0665 6.79691 43.0665H3.98435C1.78389 43.0665 0 44.8504 0 47.0509V48.2228C0 50.4232 1.784 52.207 3.98435 52.207H6.79691C4.59634 52.207 2.81257 50.4232 2.81257 48.2228Z" fill="#440075"/>
</g>
<path d="M26.3902 35.27H18.6106V38.1771H26.3902V35.27Z" fill="#9EA7AF"/>
<path opacity="0.15" d="M21.4455 35.27H18.6106V38.1771H21.4455V35.27Z" fill="#440075"/>
<path d="M31.651 40.9509V39.0598C31.651 38.504 31.1963 38.0492 30.6405 38.0492H14.0182C13.4622 38.0492 13.0074 38.504 13.0074 39.0598V40.9509H31.651Z" fill="#C5CCD3"/>
<path opacity="0.15" d="M16.5123 40.9509V39.0598C16.5123 38.504 16.9671 38.0492 17.5231 38.0492H14.0182C13.4622 38.0492 13.0074 38.504 13.0074 39.0598V40.9509H16.5123Z" fill="#440075"/>
<path d="M36.9556 40.7523H8.04385C7.07706 40.7523 6.28601 41.5434 6.28601 42.5102V58.2426H38.7134V42.5102C38.7134 41.5434 37.9225 40.7523 36.9556 40.7523Z" fill="#9EA7AF"/>
<g opacity="0.15">
<path opacity="0.15" d="M11.4004 40.7523H8.04385C7.07706 40.7523 6.28601 41.5434 6.28601 42.5102V58.2426H9.64255V42.5102C9.64255 41.5434 10.4336 40.7523 11.4004 40.7523Z" fill="#440075"/>
</g>
<path d="M39.9122 33.6463C39.9122 34.6131 39.1212 35.4041 38.1545 35.4041H6.84507C5.87839 35.4041 5.08734 34.6131 5.08734 33.6463V11.4483C5.08734 10.4815 5.87839 9.69055 6.84507 9.69055H38.1545C39.1212 9.69055 39.9122 10.4815 39.9122 11.4483V33.6463Z" fill="#C5CCD3"/>
<g opacity="0.15">
<path opacity="0.15" d="M8.43728 33.6463V11.4483C8.43728 10.4815 9.22833 9.69055 10.1951 9.69055H6.84507C5.87839 9.69055 5.08734 10.4815 5.08734 11.4483V33.6465C5.08734 34.6133 5.87839 35.4042 6.84507 35.4042H10.1951C9.22833 35.4041 8.43728 34.6131 8.43728 33.6463Z" fill="#440075"/>
</g>
<path d="M35.7526 22.5802C35.7526 25.9335 33.0342 28.6515 29.6811 28.6515H15.3186C11.9653 28.6515 9.24701 25.9334 9.24701 22.5802C9.24701 19.2269 11.9653 16.5089 15.3186 16.5089H29.6811C33.0342 16.5089 35.7526 19.2269 35.7526 22.5802Z" fill="#135693"/>
<g opacity="0.15">
<path opacity="0.15" d="M12.6561 22.5802C12.6561 19.2269 15.3744 16.5089 18.7277 16.5089H15.3186C11.9653 16.5089 9.24701 19.2271 9.24701 22.5802C9.24701 25.9335 11.9653 28.6515 15.3186 28.6515H18.7277C15.3744 28.6515 12.6561 25.9334 12.6561 22.5802Z" fill="#440075"/>
</g>
<path d="M14.7123 24.953C16.0162 24.953 17.0731 23.8918 17.0731 22.5828C17.0731 21.2738 16.0162 20.2126 14.7123 20.2126C13.4084 20.2126 12.3514 21.2738 12.3514 22.5828C12.3514 23.8918 13.4084 24.953 14.7123 24.953Z" fill="#6BC1DD"/>
<path d="M30.3331 24.9517C31.637 24.9517 32.694 23.8905 32.694 22.5815C32.694 21.2725 31.637 20.2113 30.3331 20.2113C29.0292 20.2113 27.9723 21.2725 27.9723 22.5815C27.9723 23.8905 29.0292 24.9517 30.3331 24.9517Z" fill="#6BC1DD"/>
<path d="M32.9737 58.2415V48.0253C32.9737 47.3808 32.4463 46.8534 31.8018 46.8534H13.1984C12.5539 46.8534 12.0266 47.3808 12.0266 48.0253V58.2415H32.9737Z" fill="#135693"/>
<path d="M24.6093 58.2415V54.9465C24.6093 54.7531 24.4511 54.5948 24.2578 54.5948H20.7421C20.5489 54.5948 20.3906 54.7531 20.3906 54.9465V58.2415H24.6093Z" fill="#FFC502"/>
<path d="M17.578 50.5215H14.8828C14.4115 50.5215 14.0296 50.1396 14.0296 49.6683C14.0296 49.1971 14.4115 48.8152 14.8828 48.8152H17.578C18.0493 48.8152 18.4312 49.1971 18.4312 49.6683C18.4312 50.1395 18.0493 50.5215 17.578 50.5215Z" fill="#C5CCD3"/>
<path d="M16.4063 52.6028H14.8828C14.4115 52.6028 14.0297 52.2209 14.0297 51.7496C14.0297 51.2784 14.4115 50.8965 14.8828 50.8965H16.4063C16.8776 50.8965 17.2595 51.2784 17.2595 51.7496C17.2595 52.2209 16.8775 52.6028 16.4063 52.6028Z" fill="#C5CCD3"/>
<path d="M17.5781 54.6871H14.8828C14.4115 54.6871 14.0297 54.3052 14.0297 53.834C14.0297 53.3627 14.4115 52.9808 14.8828 52.9808H17.5781C18.0494 52.9808 18.4313 53.3627 18.4313 53.834C18.4313 54.3053 18.0494 54.6871 17.5781 54.6871Z" fill="#C5CCD3"/>
<path d="M16.0547 56.7688H14.8828C14.4115 56.7688 14.0297 56.3869 14.0297 55.9157C14.0297 55.4445 14.4115 55.0625 14.8828 55.0625H16.0547C16.526 55.0625 16.9079 55.4445 16.9079 55.9157C16.9079 56.3869 16.5259 56.7688 16.0547 56.7688Z" fill="#C5CCD3"/>
<path d="M29.7301 55.9129H27.6498C27.1562 55.9129 26.7562 55.5128 26.7562 55.0191C26.7562 54.5254 27.1563 54.1255 27.6498 54.1255H29.7301C30.2237 54.1255 30.6239 54.5256 30.6239 55.0191C30.6239 55.5129 30.2237 55.9129 29.7301 55.9129Z" fill="#E6E9ED"/>
<path d="M28.6906 52.8156C29.7272 52.8156 30.5675 51.9753 30.5675 50.9387C30.5675 49.9021 29.7272 49.0618 28.6906 49.0618C27.654 49.0618 26.8137 49.9021 26.8137 50.9387C26.8137 51.9753 27.654 52.8156 28.6906 52.8156Z" fill="#5DC647"/>
<path d="M24.6615 51.9214C24.6615 52.1196 24.4994 52.2815 24.3013 52.2815H20.699C20.5009 52.2815 20.3388 52.1196 20.3388 51.9214V49.9575C20.3388 49.7594 20.5009 49.5973 20.699 49.5973H24.3013C24.4994 49.5973 24.6615 49.7594 24.6615 49.9575V51.9214Z" fill="#6BC1DD"/>
<path d="M9.9898 83.0742L8.85183 79.9097H4.49482L3.38024 83.0742H1.41608L5.67955 71.6322H7.70607L11.9695 83.0742H9.9898ZM8.36079 78.3041L7.29297 75.202C7.21503 74.9941 7.10591 74.6668 6.96561 74.2199C6.83051 73.773 6.73698 73.4457 6.68502 73.2378C6.54472 73.877 6.33947 74.5758 6.06927 75.3345L5.04042 78.3041H8.36079ZM17.6516 74.2978C18.0205 74.2978 18.3245 74.3238 18.5635 74.3758L18.3842 76.0827C18.1244 76.0204 17.8542 75.9892 17.5736 75.9892C16.841 75.9892 16.246 76.2282 15.7887 76.7063C15.3367 77.1843 15.1106 77.8053 15.1106 78.5691V83.0742H13.279V74.4537H14.7131L14.9548 75.9736H15.0483C15.3341 75.4592 15.7056 75.0513 16.1629 74.7499C16.6253 74.4485 17.1216 74.2978 17.6516 74.2978ZM23.3804 81.7492C23.8273 81.7492 24.2741 81.679 24.721 81.5387V82.9183C24.5184 83.0067 24.2559 83.0794 23.9338 83.1366C23.6168 83.1989 23.2869 83.2301 22.9439 83.2301C21.2084 83.2301 20.3406 82.3156 20.3406 80.4865V75.8411H19.1637V75.0305L20.4264 74.3602L21.0499 72.5363H22.1801V74.4537H24.6353V75.8411H22.1801V80.4553C22.1801 80.897 22.2892 81.2244 22.5074 81.4374C22.7309 81.6453 23.0219 81.7492 23.3804 81.7492ZM28.283 83.0742H26.4513V74.4537H28.283V83.0742ZM26.3422 72.17C26.3422 71.8426 26.4306 71.5906 26.6072 71.414C26.7891 71.2373 27.0463 71.149 27.3789 71.149C27.701 71.149 27.9504 71.2373 28.1271 71.414C28.309 71.5906 28.3999 71.8426 28.3999 72.17C28.3999 72.4818 28.309 72.7286 28.1271 72.9105C27.9504 73.0871 27.701 73.1755 27.3789 73.1755C27.0463 73.1755 26.7891 73.0871 26.6072 72.9105C26.4306 72.7286 26.3422 72.4818 26.3422 72.17ZM35.2355 75.8411H33.131V83.0742H31.2916V75.8411H29.873V74.9837L31.2916 74.4226V73.8614C31.2916 72.8429 31.5306 72.0895 32.0087 71.601C32.4867 71.1074 33.2168 70.8606 34.1989 70.8606C34.8432 70.8606 35.4771 70.9671 36.1007 71.1801L35.6174 72.5675C35.1654 72.422 34.7341 72.3493 34.3236 72.3493C33.9079 72.3493 33.6039 72.4792 33.4116 72.739C33.2246 72.9936 33.131 73.3781 33.131 73.8925V74.4537H35.2355V75.8411ZM38.5325 83.0742H36.7008V74.4537H38.5325V83.0742ZM36.5917 72.17C36.5917 71.8426 36.68 71.5906 36.8567 71.414C37.0386 71.2373 37.2958 71.149 37.6284 71.149C37.9505 71.149 38.1999 71.2373 38.3766 71.414C38.5585 71.5906 38.6494 71.8426 38.6494 72.17C38.6494 72.4818 38.5585 72.7286 38.3766 72.9105C38.1999 73.0871 37.9505 73.1755 37.6284 73.1755C37.2958 73.1755 37.0386 73.0871 36.8567 72.9105C36.68 72.7286 36.5917 72.4818 36.5917 72.17ZM44.6432 83.2301C43.339 83.2301 42.3465 82.8508 41.6658 82.0921C40.9903 81.3283 40.6525 80.2345 40.6525 78.8107C40.6525 77.361 41.0059 76.2464 41.7126 75.467C42.4244 74.6876 43.4507 74.2978 44.7913 74.2978C45.7006 74.2978 46.519 74.4667 47.2465 74.8045L46.6931 76.2776C45.9189 75.9762 45.2797 75.8255 44.7757 75.8255C43.2844 75.8255 42.5388 76.8154 42.5388 78.7952C42.5388 79.7616 42.7232 80.4891 43.0922 80.9776C43.4663 81.4608 44.0119 81.7024 44.729 81.7024C45.5448 81.7024 46.3164 81.4998 47.0439 81.0945V82.6923C46.7165 82.8846 46.3658 83.0223 45.9916 83.1054C45.6227 83.1885 45.1732 83.2301 44.6432 83.2301ZM50.902 83.0742H49.0704V74.4537H50.902V83.0742ZM48.9613 72.17C48.9613 71.8426 49.0496 71.5906 49.2263 71.414C49.4081 71.2373 49.6653 71.149 49.9979 71.149C50.3201 71.149 50.5695 71.2373 50.7461 71.414C50.928 71.5906 51.0189 71.8426 51.0189 72.17C51.0189 72.4818 50.928 72.7286 50.7461 72.9105C50.5695 73.0871 50.3201 73.1755 49.9979 73.1755C49.6653 73.1755 49.4081 73.0871 49.2263 72.9105C49.0496 72.7286 48.9613 72.4818 48.9613 72.17ZM58.9224 83.0742L58.556 81.8739H58.4937C58.078 82.3987 57.6597 82.7573 57.2388 82.9495C56.8179 83.1366 56.2775 83.2301 55.6176 83.2301C54.7706 83.2301 54.1081 83.0015 53.63 82.5442C53.1572 82.0869 52.9208 81.44 52.9208 80.6034C52.9208 79.7149 53.2507 79.0446 53.9106 78.5925C54.5705 78.1404 55.576 77.8936 56.927 77.852L58.4157 77.8053V77.3454C58.4157 76.7946 58.2858 76.3841 58.026 76.1139C57.7714 75.8385 57.3739 75.7008 56.8335 75.7008C56.3918 75.7008 55.9683 75.7658 55.563 75.8957C55.1577 76.0256 54.768 76.1789 54.3939 76.3555L53.8015 75.0461C54.2692 74.8019 54.781 74.6174 55.337 74.4927C55.893 74.3628 56.4178 74.2978 56.9114 74.2978C58.0078 74.2978 58.834 74.5369 59.39 75.0149C59.9512 75.493 60.2318 76.2438 60.2318 77.2675V83.0742H58.9224ZM56.1944 81.8271C56.8595 81.8271 57.3921 81.6427 57.7922 81.2737C58.1975 80.8996 58.4001 80.3774 58.4001 79.7071V78.9588L57.2934 79.0056C56.4308 79.0368 55.802 79.1823 55.4071 79.4421C55.0174 79.6967 54.8226 80.089 54.8226 80.619C54.8226 81.0035 54.9369 81.3023 55.1655 81.5154C55.3941 81.7232 55.7371 81.8271 56.1944 81.8271ZM64.62 83.0742H62.7883V70.9463H64.62V83.0742ZM71.5881 83.0742V71.679H73.4509V83.0742H71.5881ZM83.8563 83.0742H82.0168V77.7741C82.0168 77.109 81.8817 76.6128 81.6115 76.2854C81.3465 75.958 80.923 75.7944 80.3411 75.7944C79.5668 75.7944 79.0004 76.023 78.6419 76.4802C78.2834 76.9375 78.1041 77.704 78.1041 78.7796V83.0742H76.2724V74.4537H77.7066L77.9638 75.5839H78.0573C78.3171 75.1734 78.6861 74.8564 79.1641 74.633C79.6422 74.4096 80.1722 74.2978 80.7542 74.2978C82.8222 74.2978 83.8563 75.3501 83.8563 77.4545V83.0742ZM89.6163 81.7492C90.0632 81.7492 90.51 81.679 90.9569 81.5387V82.9183C90.7542 83.0067 90.4918 83.0794 90.1697 83.1366C89.8527 83.1989 89.5227 83.2301 89.1798 83.2301C87.4443 83.2301 86.5765 82.3156 86.5765 80.4865V75.8411H85.3996V75.0305L86.6622 74.3602L87.2858 72.5363H88.416V74.4537H90.8712V75.8411H88.416V80.4553C88.416 80.897 88.5251 81.2244 88.7433 81.4374C88.9668 81.6453 89.2577 81.7492 89.6163 81.7492ZM96.4519 83.2301C95.1113 83.2301 94.0616 82.8404 93.303 82.061C92.5495 81.2763 92.1728 80.1981 92.1728 78.8263C92.1728 77.4182 92.5235 76.3114 93.225 75.506C93.9265 74.7006 94.8904 74.2978 96.1167 74.2978C97.2547 74.2978 98.1536 74.6434 98.8135 75.3345C99.4735 76.0256 99.8034 76.9765 99.8034 78.1872V79.1771H94.059C94.085 80.0137 94.311 80.658 94.7371 81.1101C95.1632 81.5569 95.7634 81.7804 96.5376 81.7804C97.0468 81.7804 97.5197 81.7336 97.9562 81.6401C98.3978 81.5413 98.8707 81.3803 99.3747 81.1568V82.6455C98.9279 82.8586 98.4758 83.0093 98.0185 83.0976C97.5613 83.1859 97.039 83.2301 96.4519 83.2301ZM96.1167 75.6852C95.5347 75.6852 95.0671 75.8697 94.7137 76.2386C94.3656 76.6076 94.1577 77.1454 94.0902 77.852H98.0029C97.9925 77.1402 97.8211 76.6024 97.4885 76.2386C97.156 75.8697 96.6987 75.6852 96.1167 75.6852ZM103.716 83.0742H101.884V70.9463H103.716V83.0742ZM108.174 83.0742H106.343V70.9463H108.174V83.0742ZM112.633 83.0742H110.801V74.4537H112.633V83.0742ZM110.692 72.17C110.692 71.8426 110.78 71.5906 110.957 71.414C111.139 71.2373 111.396 71.149 111.729 71.149C112.051 71.149 112.3 71.2373 112.477 71.414C112.659 71.5906 112.75 71.8426 112.75 72.17C112.75 72.4818 112.659 72.7286 112.477 72.9105C112.3 73.0871 112.051 73.1755 111.729 73.1755C111.396 73.1755 111.139 73.0871 110.957 72.9105C110.78 72.7286 110.692 72.4818 110.692 72.17ZM122.539 74.4537V75.4592L121.066 75.732C121.201 75.9139 121.313 76.1373 121.401 76.4023C121.49 76.6673 121.534 76.9479 121.534 77.2441C121.534 78.1326 121.227 78.8315 120.614 79.3408C120.001 79.85 119.157 80.1046 118.081 80.1046C117.806 80.1046 117.556 80.0838 117.333 80.0422C116.938 80.2865 116.74 80.5723 116.74 80.8996C116.74 81.0971 116.831 81.2452 117.013 81.3439C117.2 81.4426 117.541 81.492 118.034 81.492H119.539C120.489 81.492 121.212 81.6946 121.705 82.0999C122.199 82.5052 122.446 83.0898 122.446 83.8536C122.446 84.8305 122.043 85.584 121.238 86.114C120.432 86.644 119.268 86.909 117.746 86.909C116.572 86.909 115.675 86.7012 115.057 86.2855C114.438 85.8698 114.129 85.2774 114.129 84.5084C114.129 83.9784 114.296 83.5315 114.628 83.1678C114.966 82.8092 115.436 82.5598 116.039 82.4195C115.795 82.3156 115.592 82.1493 115.431 81.9207C115.275 81.6868 115.197 81.4426 115.197 81.188C115.197 80.8658 115.288 80.593 115.47 80.3696C115.652 80.1462 115.922 79.9253 116.281 79.7071C115.834 79.5148 115.47 79.2031 115.189 78.7718C114.914 78.3353 114.776 77.8261 114.776 77.2441C114.776 76.3088 115.07 75.5839 115.657 75.0695C116.249 74.5551 117.091 74.2978 118.182 74.2978C118.427 74.2978 118.681 74.316 118.946 74.3524C119.216 74.3836 119.419 74.4174 119.554 74.4537H122.539ZM115.766 84.4148C115.766 84.8097 115.943 85.1137 116.296 85.3268C116.655 85.5398 117.156 85.6463 117.8 85.6463C118.798 85.6463 119.541 85.5034 120.03 85.2176C120.518 84.9319 120.762 84.5525 120.762 84.0797C120.762 83.7056 120.627 83.438 120.357 83.2769C120.092 83.121 119.596 83.043 118.868 83.043H117.481C116.956 83.043 116.538 83.1652 116.226 83.4094C115.919 83.6588 115.766 83.9939 115.766 84.4148ZM116.553 77.2441C116.553 77.7845 116.691 78.2002 116.966 78.4912C117.247 78.7822 117.647 78.9277 118.167 78.9277C119.227 78.9277 119.757 78.3613 119.757 77.2285C119.757 76.6673 119.624 76.236 119.359 75.9346C119.099 75.6281 118.702 75.4748 118.167 75.4748C117.637 75.4748 117.234 75.6255 116.959 75.9269C116.688 76.2282 116.553 76.6673 116.553 77.2441ZM127.91 83.2301C126.569 83.2301 125.519 82.8404 124.761 82.061C124.007 81.2763 123.631 80.1981 123.631 78.8263C123.631 77.4182 123.981 76.3114 124.683 75.506C125.384 74.7006 126.348 74.2978 127.574 74.2978C128.712 74.2978 129.611 74.6434 130.271 75.3345C130.931 76.0256 131.261 76.9765 131.261 78.1872V79.1771H125.517C125.543 80.0137 125.769 80.658 126.195 81.1101C126.621 81.5569 127.221 81.7804 127.995 81.7804C128.505 81.7804 128.977 81.7336 129.414 81.6401C129.856 81.5413 130.328 81.3803 130.832 81.1568V82.6455C130.386 82.8586 129.934 83.0093 129.476 83.0976C129.019 83.1859 128.497 83.2301 127.91 83.2301ZM127.574 75.6852C126.993 75.6852 126.525 75.8697 126.172 76.2386C125.823 76.6076 125.616 77.1454 125.548 77.852H129.461C129.45 77.1402 129.279 76.6024 128.946 76.2386C128.614 75.8697 128.156 75.6852 127.574 75.6852ZM140.926 83.0742H139.087V77.7741C139.087 77.109 138.952 76.6128 138.681 76.2854C138.416 75.958 137.993 75.7944 137.411 75.7944C136.637 75.7944 136.07 76.023 135.712 76.4802C135.353 76.9375 135.174 77.704 135.174 78.7796V83.0742H133.342V74.4537H134.776L135.034 75.5839H135.127C135.387 75.1734 135.756 74.8564 136.234 74.633C136.712 74.4096 137.242 74.2978 137.824 74.2978C139.892 74.2978 140.926 75.3501 140.926 77.4545V83.0742ZM146.951 83.2301C145.647 83.2301 144.654 82.8508 143.974 82.0921C143.298 81.3283 142.96 80.2345 142.96 78.8107C142.96 77.361 143.314 76.2464 144.02 75.467C144.732 74.6876 145.759 74.2978 147.099 74.2978C148.009 74.2978 148.827 74.4667 149.554 74.8045L149.001 76.2776C148.227 75.9762 147.588 75.8255 147.084 75.8255C145.592 75.8255 144.847 76.8154 144.847 78.7952C144.847 79.7616 145.031 80.4891 145.4 80.9776C145.774 81.4608 146.32 81.7024 147.037 81.7024C147.853 81.7024 148.624 81.4998 149.352 81.0945V82.6923C149.024 82.8846 148.674 83.0223 148.299 83.1054C147.931 83.1885 147.481 83.2301 146.951 83.2301ZM155.143 83.2301C153.802 83.2301 152.753 82.8404 151.994 82.061C151.241 81.2763 150.864 80.1981 150.864 78.8263C150.864 77.4182 151.215 76.3114 151.916 75.506C152.618 74.7006 153.581 74.2978 154.808 74.2978C155.946 74.2978 156.845 74.6434 157.505 75.3345C158.164 76.0256 158.494 76.9765 158.494 78.1872V79.1771H152.75C152.776 80.0137 153.002 80.658 153.428 81.1101C153.854 81.5569 154.454 81.7804 155.229 81.7804C155.738 81.7804 156.211 81.7336 156.647 81.6401C157.089 81.5413 157.562 81.3803 158.066 81.1568V82.6455C157.619 82.8586 157.167 83.0093 156.71 83.0976C156.252 83.1859 155.73 83.2301 155.143 83.2301ZM154.808 75.6852C154.226 75.6852 153.758 75.8697 153.405 76.2386C153.057 76.6076 152.849 77.1454 152.781 77.852H156.694C156.684 77.1402 156.512 76.6024 156.18 76.2386C155.847 75.8697 155.39 75.6852 154.808 75.6852Z" fill="#3A68B8"/>
</svg>
