<svg width="45" height="59" viewBox="0 0 45 59" fill="none" xmlns="http://www.w3.org/2000/svg">
<path d="M22.5002 5.86665C22.2033 5.86665 21.9167 5.82138 21.647 5.73743V9.80413H23.3533V5.73743C23.0836 5.82149 22.7971 5.86665 22.5002 5.86665Z" fill="#135693"/>
<path d="M22.5 5.98118C24.1517 5.98118 25.4906 4.64225 25.4906 2.99059C25.4906 1.33893 24.1517 0 22.5 0C20.8484 0 19.5094 1.33893 19.5094 2.99059C19.5094 4.64225 20.8484 5.98118 22.5 5.98118Z" fill="#6BC1DD"/>
<g opacity="0.15">
<path opacity="0.15" d="M22.0267 2.99059C22.0267 1.78878 22.7359 0.753051 23.7587 0.277673C23.3759 0.099876 22.9498 0 22.5 0C20.8483 0 19.5094 1.339 19.5094 2.99059C19.5094 4.64219 20.8483 5.98107 22.5 5.98107C22.9498 5.98107 23.3759 5.88119 23.7587 5.7034C22.7359 5.22813 22.0267 4.1924 22.0267 2.99059Z" fill="#440075"/>
</g>
<path d="M41.562 14.4727H39.7985V30.7415H41.562C42.5288 30.7415 43.3199 29.9506 43.3199 28.9838V16.2304C43.3199 15.2637 42.5288 14.4727 41.562 14.4727Z" fill="#9EA7AF"/>
<path d="M5.20129 14.4724H3.32139C2.35459 14.4724 1.56366 15.2635 1.56366 16.2301V28.9834C1.56366 29.9502 2.35459 30.7412 3.32139 30.7412H5.20117L5.20129 14.4724Z" fill="#9EA7AF"/>
<path d="M6.4 52.0263H3.98432C3.1596 52.0263 2.39347 51.7758 1.75781 51.3466V57.0707C1.75781 57.7152 2.28518 58.2425 2.92971 58.2425H6.4V52.0263Z" fill="#C5CCD3"/>
<path d="M41.0155 52.0259H38.5999V58.2422H42.0702C42.7148 58.2422 43.2421 57.7148 43.2421 57.0703V51.3463C42.6064 51.7753 41.8402 52.0259 41.0155 52.0259Z" fill="#C5CCD3"/>
<path opacity="0.15" d="M4.21877 57.0705V52.0261H3.98432C3.1596 52.0261 2.39347 51.7755 1.75781 51.3463V57.0704C1.75781 57.7149 2.28518 58.2423 2.92971 58.2423H5.39066C4.74613 58.2424 4.21877 57.7151 4.21877 57.0705Z" fill="#440075"/>
<path d="M6.40003 43.0671H3.98435C1.78389 43.0671 0 44.851 0 47.0515V48.2234C0 50.4238 1.784 52.2076 3.98435 52.2076H6.39991L6.40003 43.0671Z" fill="#E6E9ED"/>
<path d="M41.0155 43.0664H38.5999V52.207H41.0155C43.2161 52.207 44.9999 50.4231 44.9999 48.2228V47.0509C44.9999 44.8502 43.216 43.0664 41.0155 43.0664Z" fill="#E6E9ED"/>
<g opacity="0.15">
<path opacity="0.15" d="M2.81257 48.2228V47.0509C2.81257 44.8503 4.59646 43.0665 6.79691 43.0665H3.98435C1.78389 43.0665 0 44.8504 0 47.0509V48.2228C0 50.4232 1.784 52.207 3.98435 52.207H6.79691C4.59634 52.207 2.81257 50.4232 2.81257 48.2228Z" fill="#440075"/>
</g>
<path d="M26.3902 35.27H18.6106V38.1771H26.3902V35.27Z" fill="#9EA7AF"/>
<path opacity="0.15" d="M21.4455 35.27H18.6106V38.1771H21.4455V35.27Z" fill="#440075"/>
<path d="M31.651 40.9509V39.0598C31.651 38.504 31.1963 38.0492 30.6405 38.0492H14.0182C13.4622 38.0492 13.0074 38.504 13.0074 39.0598V40.9509H31.651Z" fill="#C5CCD3"/>
<path opacity="0.15" d="M16.5123 40.9509V39.0598C16.5123 38.504 16.9671 38.0492 17.5231 38.0492H14.0182C13.4622 38.0492 13.0074 38.504 13.0074 39.0598V40.9509H16.5123Z" fill="#440075"/>
<path d="M36.9556 40.7523H8.04385C7.07706 40.7523 6.28601 41.5434 6.28601 42.5102V58.2426H38.7134V42.5102C38.7134 41.5434 37.9225 40.7523 36.9556 40.7523Z" fill="#9EA7AF"/>
<g opacity="0.15">
<path opacity="0.15" d="M11.4004 40.7523H8.04385C7.07706 40.7523 6.28601 41.5434 6.28601 42.5102V58.2426H9.64255V42.5102C9.64255 41.5434 10.4336 40.7523 11.4004 40.7523Z" fill="#440075"/>
</g>
<path d="M39.9122 33.6463C39.9122 34.6131 39.1212 35.4041 38.1545 35.4041H6.84507C5.87839 35.4041 5.08734 34.6131 5.08734 33.6463V11.4483C5.08734 10.4815 5.87839 9.69055 6.84507 9.69055H38.1545C39.1212 9.69055 39.9122 10.4815 39.9122 11.4483V33.6463Z" fill="#C5CCD3"/>
<g opacity="0.15">
<path opacity="0.15" d="M8.43728 33.6463V11.4483C8.43728 10.4815 9.22833 9.69055 10.1951 9.69055H6.84507C5.87839 9.69055 5.08734 10.4815 5.08734 11.4483V33.6465C5.08734 34.6133 5.87839 35.4042 6.84507 35.4042H10.1951C9.22833 35.4041 8.43728 34.6131 8.43728 33.6463Z" fill="#440075"/>
</g>
<path d="M35.7526 22.5802C35.7526 25.9335 33.0342 28.6515 29.6811 28.6515H15.3186C11.9653 28.6515 9.24701 25.9334 9.24701 22.5802C9.24701 19.2269 11.9653 16.5089 15.3186 16.5089H29.6811C33.0342 16.5089 35.7526 19.2269 35.7526 22.5802Z" fill="#135693"/>
<g opacity="0.15">
<path opacity="0.15" d="M12.6561 22.5802C12.6561 19.2269 15.3744 16.5089 18.7277 16.5089H15.3186C11.9653 16.5089 9.24701 19.2271 9.24701 22.5802C9.24701 25.9335 11.9653 28.6515 15.3186 28.6515H18.7277C15.3744 28.6515 12.6561 25.9334 12.6561 22.5802Z" fill="#440075"/>
</g>
<path d="M14.7123 24.953C16.0162 24.953 17.0731 23.8918 17.0731 22.5828C17.0731 21.2738 16.0162 20.2126 14.7123 20.2126C13.4084 20.2126 12.3514 21.2738 12.3514 22.5828C12.3514 23.8918 13.4084 24.953 14.7123 24.953Z" fill="#6BC1DD"/>
<path d="M30.3331 24.9517C31.637 24.9517 32.694 23.8905 32.694 22.5815C32.694 21.2725 31.637 20.2113 30.3331 20.2113C29.0292 20.2113 27.9723 21.2725 27.9723 22.5815C27.9723 23.8905 29.0292 24.9517 30.3331 24.9517Z" fill="#6BC1DD"/>
<path d="M32.9737 58.2415V48.0253C32.9737 47.3808 32.4463 46.8534 31.8018 46.8534H13.1984C12.5539 46.8534 12.0266 47.3808 12.0266 48.0253V58.2415H32.9737Z" fill="#135693"/>
<path d="M24.6093 58.2415V54.9465C24.6093 54.7531 24.4511 54.5948 24.2578 54.5948H20.7421C20.5489 54.5948 20.3906 54.7531 20.3906 54.9465V58.2415H24.6093Z" fill="#FFC502"/>
<path d="M17.578 50.5215H14.8828C14.4115 50.5215 14.0296 50.1396 14.0296 49.6683C14.0296 49.1971 14.4115 48.8152 14.8828 48.8152H17.578C18.0493 48.8152 18.4312 49.1971 18.4312 49.6683C18.4312 50.1395 18.0493 50.5215 17.578 50.5215Z" fill="#C5CCD3"/>
<path d="M16.4063 52.6028H14.8828C14.4115 52.6028 14.0297 52.2209 14.0297 51.7496C14.0297 51.2784 14.4115 50.8965 14.8828 50.8965H16.4063C16.8776 50.8965 17.2595 51.2784 17.2595 51.7496C17.2595 52.2209 16.8775 52.6028 16.4063 52.6028Z" fill="#C5CCD3"/>
<path d="M17.5781 54.6871H14.8828C14.4115 54.6871 14.0297 54.3052 14.0297 53.834C14.0297 53.3627 14.4115 52.9808 14.8828 52.9808H17.5781C18.0494 52.9808 18.4313 53.3627 18.4313 53.834C18.4313 54.3053 18.0494 54.6871 17.5781 54.6871Z" fill="#C5CCD3"/>
<path d="M16.0547 56.7688H14.8828C14.4115 56.7688 14.0297 56.3869 14.0297 55.9157C14.0297 55.4445 14.4115 55.0625 14.8828 55.0625H16.0547C16.526 55.0625 16.9079 55.4445 16.9079 55.9157C16.9079 56.3869 16.5259 56.7688 16.0547 56.7688Z" fill="#C5CCD3"/>
<path d="M29.7301 55.9129H27.6498C27.1562 55.9129 26.7562 55.5128 26.7562 55.0191C26.7562 54.5254 27.1563 54.1255 27.6498 54.1255H29.7301C30.2237 54.1255 30.6239 54.5256 30.6239 55.0191C30.6239 55.5129 30.2237 55.9129 29.7301 55.9129Z" fill="#E6E9ED"/>
<path d="M28.6906 52.8156C29.7272 52.8156 30.5675 51.9753 30.5675 50.9387C30.5675 49.9021 29.7272 49.0618 28.6906 49.0618C27.654 49.0618 26.8137 49.9021 26.8137 50.9387C26.8137 51.9753 27.654 52.8156 28.6906 52.8156Z" fill="#5DC647"/>
<path d="M24.6615 51.9214C24.6615 52.1196 24.4994 52.2815 24.3013 52.2815H20.699C20.5009 52.2815 20.3388 52.1196 20.3388 51.9214V49.9575C20.3388 49.7594 20.5009 49.5973 20.699 49.5973H24.3013C24.4994 49.5973 24.6615 49.7594 24.6615 49.9575V51.9214Z" fill="#6BC1DD"/>
</svg>
