<svg width="176" height="17" viewBox="0 0 176 17" fill="none" xmlns="http://www.w3.org/2000/svg">
<g opacity="0.6">
<path d="M8.75 0.5H6.5C5.50544 0.5 4.55161 0.895088 3.84835 1.59835C3.14509 2.30161 2.75 3.25544 2.75 4.25V6.5H0.5V9.5H2.75V15.5H5.75V9.5H8L8.75 6.5H5.75V4.25C5.75 4.05109 5.82902 3.86032 5.96967 3.71967C6.11032 3.57902 6.30109 3.5 6.5 3.5H8.75V0.5Z" stroke="white" stroke-linecap="round" stroke-linejoin="round"/>
<path d="M45 0.5H37.5C35.4289 0.5 33.75 2.17893 33.75 4.25V11.75C33.75 13.8211 35.4289 15.5 37.5 15.5H45C47.0711 15.5 48.75 13.8211 48.75 11.75V4.25C48.75 2.17893 47.0711 0.5 45 0.5Z" stroke="white" stroke-linecap="round" stroke-linejoin="round"/>
<path d="M44.25 7.52736C44.3426 8.15154 44.236 8.78902 43.9453 9.34912C43.6547 9.90922 43.1949 10.3634 42.6312 10.6471C42.0676 10.9308 41.4289 11.0296 40.8059 10.9293C40.1829 10.8291 39.6073 10.5349 39.1612 10.0887C38.715 9.64254 38.4208 9.06702 38.3206 8.44402C38.2203 7.82102 38.3191 7.18228 38.6028 6.61864C38.8865 6.055 39.3407 5.59517 39.9008 5.30454C40.4609 5.01392 41.0983 4.9073 41.7225 4.99986C42.3592 5.09427 42.9487 5.39096 43.4038 5.84609C43.8589 6.30122 44.1556 6.89067 44.25 7.52736Z" stroke="white" stroke-linecap="round" stroke-linejoin="round"/>
<path d="M45.375 3.875H45.3825" stroke="white" stroke-linecap="round" stroke-linejoin="round"/>
<path d="M92.1409 0.508406C91.3404 1.07307 90.454 1.50495 89.516 1.78741C89.0125 1.20852 88.3434 0.798223 87.5992 0.612002C86.8549 0.425781 86.0715 0.472624 85.3547 0.746195C84.638 1.01977 84.0225 1.50686 83.5916 2.14161C83.1607 2.77636 82.9352 3.52813 82.9454 4.29525V5.1312C81.4764 5.1693 80.0207 4.84348 78.708 4.18277C77.3954 3.52207 76.2665 2.54698 75.4219 1.34435C75.4219 1.34435 72.0781 8.86789 79.6016 12.2117C77.88 13.3803 75.8291 13.9663 73.75 13.8836C81.2735 18.0633 90.469 13.8836 90.469 4.27018C90.4682 4.03733 90.4458 3.80505 90.4021 3.57634C91.2553 2.73495 91.8573 1.67264 92.1409 0.508406V0.508406Z" stroke="white" stroke-linecap="round" stroke-linejoin="round"/>
<path d="M127.641 6C128.834 6 129.979 6.47411 130.823 7.31802C131.667 8.16193 132.141 9.30653 132.141 10.5V15.75H129.141V10.5C129.141 10.1022 128.983 9.72064 128.702 9.43934C128.42 9.15804 128.039 9 127.641 9C127.243 9 126.862 9.15804 126.58 9.43934C126.299 9.72064 126.141 10.1022 126.141 10.5V15.75H123.141V10.5C123.141 9.30653 123.615 8.16193 124.459 7.31802C125.303 6.47411 126.447 6 127.641 6V6Z" stroke="white" stroke-linecap="round" stroke-linejoin="round"/>
<path d="M120.141 6.75H117.141V15.75H120.141V6.75Z" stroke="white" stroke-linecap="round" stroke-linejoin="round"/>
<path d="M118.641 4.5C119.469 4.5 120.141 3.82843 120.141 3C120.141 2.17157 119.469 1.5 118.641 1.5C117.812 1.5 117.141 2.17157 117.141 3C117.141 3.82843 117.812 4.5 118.641 4.5Z" stroke="white" stroke-linecap="round" stroke-linejoin="round"/>
<path d="M174.764 4.4799C174.667 4.09162 174.469 3.73586 174.19 3.44856C173.912 3.16125 173.562 2.95258 173.177 2.84362C171.77 2.5 166.141 2.5 166.141 2.5C166.141 2.5 160.512 2.5 159.105 2.87634C158.72 2.98531 158.37 3.19398 158.091 3.48128C157.813 3.76858 157.615 4.12434 157.518 4.51262C157.26 5.94073 157.134 7.38945 157.141 8.84058C157.132 10.3026 157.258 11.7624 157.518 13.2013C157.625 13.5775 157.827 13.9197 158.105 14.1949C158.383 14.47 158.728 14.6689 159.105 14.7721C160.512 15.1484 166.141 15.1484 166.141 15.1484C166.141 15.1484 171.77 15.1484 173.177 14.7721C173.562 14.6631 173.912 14.4545 174.19 14.1672C174.469 13.8799 174.667 13.5241 174.764 13.1358C175.02 11.7185 175.146 10.2808 175.14 8.84058C175.15 7.37853 175.024 5.91876 174.764 4.4799V4.4799Z" stroke="white" stroke-linecap="round" stroke-linejoin="round"/>
<path d="M164.3 11.5157L169.004 8.84035L164.3 6.16504V11.5157Z" stroke="white" stroke-linecap="round" stroke-linejoin="round"/>
</g>
</svg>
